<svg width="1331" height="289" viewBox="0 0 1331 289" fill="none" xmlns="http://www.w3.org/2000/svg">
<circle opacity="0.74" cx="2" cy="2" r="1" transform="matrix(-1 0 0 1 1083.39 273.455)" fill="#F3D038" stroke="#F3D038" stroke-width="2"/>
<circle opacity="0.74" cx="2" cy="2" r="1" transform="matrix(-1 0 0 1 996.213 195.174)" fill="#F3D038" stroke="#F3D038" stroke-width="2"/>
<circle opacity="0.74" cx="2" cy="2" r="1" transform="matrix(-1 0 0 1 1156.33 153.364)" fill="#F3D038" stroke="#F3D038" stroke-width="2"/>
<circle opacity="0.74" cx="2" cy="2" r="1" transform="matrix(-1 0 0 1 931.183 199.174)" fill="#F3D038" stroke="#F3D038" stroke-width="2"/>
<circle opacity="0.74" cx="2" cy="2" r="1" transform="matrix(-1 0 0 1 1256.1 277.124)" fill="#F3D038" stroke="#F3D038" stroke-width="2"/>
<circle opacity="0.74" cx="2" cy="2" r="1" transform="matrix(-1 0 0 1 1330.82 146.027)" fill="#F3D038" stroke="#F3D038" stroke-width="2"/>
<circle opacity="0.74" cx="2" cy="2" r="1" transform="matrix(-1 0 0 1 1239.19 0.479492)" fill="#F3D038" stroke="#F3D038" stroke-width="2"/>
<circle opacity="0.74" cx="250.15" cy="282.455" r="1" fill="#F3D038" stroke="#F3D038" stroke-width="2"/>
<circle opacity="0.74" cx="337.327" cy="204.174" r="1" fill="#F3D038" stroke="#F3D038" stroke-width="2"/>
<circle opacity="0.74" cx="177.206" cy="162.364" r="1" fill="#F3D038" stroke="#F3D038" stroke-width="2"/>
<circle opacity="0.74" cx="402.357" cy="208.174" r="1" fill="#F3D038" stroke="#F3D038" stroke-width="2"/>
<circle opacity="0.74" cx="77.4443" cy="286.124" r="1" fill="#F3D038" stroke="#F3D038" stroke-width="2"/>
<circle opacity="0.74" cx="2.72119" cy="155.027" r="1" fill="#F3D038" stroke="#F3D038" stroke-width="2"/>
<circle opacity="0.74" cx="94.3457" cy="9.47949" r="1" fill="#F3D038" stroke="#F3D038" stroke-width="2"/>
</svg>
