<svg xmlns="http://www.w3.org/2000/svg" viewBox="0 0 1382.94 255.35"><defs><style>.cls-1{fill:#fff;}.cls-2{fill:#f3d038;}</style></defs><g id="Layer_2" data-name="Layer 2"><g id="Layer_1-2" data-name="Layer 1"><path class="cls-1" d="M344.69,36.38c16.68,0,30.24,8.91,35.3,24.25H362.66c-3.55-7.19-10-10.73-18.07-10.73-13.13,0-22.49,9.55-22.49,24.78s9.36,24.79,22.49,24.79c8.07,0,14.52-3.54,18.07-10.84H380c-5.06,15.45-18.62,24.25-35.3,24.25-21.62,0-38.09-15.77-38.09-38.2S323.07,36.38,344.69,36.38Z"/><path class="cls-1" d="M427.55,37.35c18.07,0,27.11,10.41,27.11,23,0,9.12-5.06,18.34-17.11,21.56l18,30.36H438.09L421.52,83.05h-7.1v29.18H399.35V37.35ZM427,49.79H414.42v22H427c8.39,0,12.16-4.4,12.16-11.16S435.4,49.79,427,49.79Z"/><path class="cls-1" d="M464.26,42.19h16.56l15.72,33.33,15.61-33.33H528.5L503.77,89.73v25.38H489.1V89.73Z"/><path class="cls-1" d="M570.2,87.11H557.94v28H543.27V42.19H570.2c17.61,0,26.41,9.92,26.41,22.57C596.61,75.83,589.06,87.11,570.2,87.11Zm-.63-11.8c8.28,0,11.95-4.08,11.95-10.55,0-6.69-3.67-10.66-11.95-10.66H557.94V75.31Z"/><path class="cls-1" d="M609.39,42.19H663V54H643.55v61.12H628.88V54H609.39Z"/><path class="cls-1" d="M714,115.84c-20.64,0-37.52-15.46-37.52-37.4s16.88-37.3,37.52-37.3c20.85,0,37.41,15.47,37.41,37.3S734.72,115.84,714,115.84Zm0-13c13.2,0,22.32-9.51,22.32-24.35S727.17,54.31,714,54.31s-22.43,9.3-22.43,24.13S700.66,102.79,714,102.79Z"/><path class="cls-2" d="M110.56,0,0,63.84V191.52l110.56,63.83,110.57-63.83V63.84ZM101,224.87l-79.65-46V74.26l79-45.62V65.1L51.31,93.46V161.9L101,190.61Zm101.58-46-82.54,47.65V190.61l48.51-28L151.3,151.2l-4.93-2.92a41.7,41.7,0,1,1,.72-41.34l4.21-2.79,4.18-2.76,13.1-8.66L119.47,64.39V26.25l83.15,48Z"/><path class="cls-1" d="M342.62,146.72c16.49,0,29.89,8.8,34.89,24H360.39c-3.51-7.1-9.9-10.6-17.87-10.6-13,0-22.23,9.43-22.23,24.49s9.25,24.49,22.23,24.49c8,0,14.36-3.5,17.87-10.71h17.12c-5,15.27-18.4,24-34.89,24-21.37,0-37.64-15.59-37.64-37.75S321.25,146.72,342.62,146.72Z"/><path class="cls-1" d="M431.1,222.42c-21,0-38.08-15.69-38.08-38s17.13-37.85,38.08-37.85c21.16,0,38,15.69,38,37.85S452.16,222.42,431.1,222.42Zm0-13.25c13.4,0,22.65-9.65,22.65-24.71S444.5,160,431.1,160s-22.76,9.44-22.76,24.49S417.59,209.17,431.1,209.17Z"/><path class="cls-1" d="M501.39,147.67v62.24h24.46v11.77H486.5v-74Z"/><path class="cls-1" d="M556.58,147.67v62.24H581v11.77H541.69v-74Z"/><path class="cls-1" d="M640,159.65H611.77v18.56h25V190h-25v19.61H640v12.09H596.88V147.56H640Z"/><path class="cls-1" d="M693.86,146.72c16.49,0,29.89,8.8,34.89,24H711.62c-3.51-7.1-9.89-10.6-17.86-10.6-13,0-22.23,9.43-22.23,24.49s9.25,24.49,22.23,24.49c8,0,14.35-3.5,17.86-10.71h17.13c-5,15.27-18.4,24-34.89,24-21.37,0-37.65-15.59-37.65-37.75S672.49,146.72,693.86,146.72Z"/><path class="cls-1" d="M744,147.67H798.4v12H778.62v62H763.73v-62H744Z"/><path class="cls-1" d="M850.08,222.42c-21,0-38.08-15.69-38.08-38s17.13-37.85,38.08-37.85c21.16,0,38,15.69,38,37.85S871.13,222.42,850.08,222.42Zm0-13.25c13.4,0,22.65-9.65,22.65-24.71S863.48,160,850.08,160s-22.76,9.44-22.76,24.49S836.57,209.17,850.08,209.17Z"/><path class="cls-1" d="M933.34,147.67c17.86,0,26.8,10.29,26.8,22.69,0,9-5,18.13-16.91,21.31l17.76,30H943.76l-16.38-28.84h-7v28.84H905.47v-74Zm-.53,12.3H920.36v21.74h12.45c8.29,0,12-4.35,12-11S941.1,160,932.81,160Z"/><path class="cls-1" d="M1005.65,222.42c-15.42,0-27.33-8.06-27.55-22h16c.42,5.94,4.36,9.86,11.27,9.86s11.17-3.71,11.17-9c0-16-38.29-6.37-38.18-33.19,0-13.36,10.84-21.42,26.16-21.42s25.63,7.74,26.59,21.1h-16.38c-.32-4.88-4.26-8.69-10.64-8.8-5.85-.21-10.21,2.65-10.21,8.69,0,14.85,38.08,6.58,38.08,32.66C1031.92,211.92,1022.56,222.42,1005.65,222.42Z"/><path class="cls-1" d="M1078.91,147.67h54.46v12h-19.79v62h-14.89v-62h-19.78Z"/><path class="cls-1" d="M1178.45,147.67c17.87,0,26.8,10.29,26.8,22.69,0,9-5,18.13-16.91,21.31l17.76,30h-17.23l-16.38-28.84h-7v28.84h-14.89v-74Zm-.53,12.3h-12.45v21.74h12.45c8.29,0,12-4.35,12-11S1186.21,160,1177.92,160Z"/><path class="cls-1" d="M1270.65,207.58h-29.57l-4.89,14.1h-15.63l26.69-74.12h17.34l26.69,74.12h-15.74Zm-14.78-42.84-10.75,31h21.49Z"/><path class="cls-1" d="M1307.65,147.67h14.89v74h-14.89Z"/><path class="cls-1" d="M1358.48,147.67v62.24h24.46v11.77h-39.35v-74Z"/></g></g></svg>