<svg xmlns="http://www.w3.org/2000/svg" viewBox="0 0 756.25 216.91"><defs><style>.cls-1{fill:#fff;}.cls-2{fill:#f3d038;}</style></defs><g id="Layer_2" data-name="Layer 2"><g id="Layer_1-2" data-name="Layer 1"><path class="cls-1" d="M241,30.91c20.5,0,37.17,10.94,43.38,29.8H263.11c-4.36-8.84-12.3-13.19-22.22-13.19-16.13,0-27.64,11.74-27.64,30.46s11.51,30.46,27.64,30.46c9.92,0,17.86-4.35,22.22-13.32H284.4c-6.21,19-22.88,29.8-43.38,29.8-26.58,0-46.81-19.38-46.81-46.94S214.44,30.91,241,30.91Z"/><path class="cls-1" d="M342.85,32.09c22.22,0,33.33,12.79,33.33,28.22,0,11.21-6.22,22.55-21,26.5l22.08,37.32H355.81L335.44,88.26h-8.72v35.87H308.2v-92Zm-.66,15.3H326.72v27h15.47c10.31,0,14.94-5.41,14.94-13.71S352.5,47.39,342.19,47.39Z"/><path class="cls-1" d="M393.23,32.09h20.9L434,74.16l19.71-42.07H474.3l-31.21,60v32H424.57v-32Z"/><path class="cls-1" d="M526.93,88.79H511.46v35.34H492.94v-92h34c22.22,0,33.33,12.53,33.33,28.48C560.26,74.55,550.73,88.79,526.93,88.79Zm-.8-14.9c10.45,0,15.08-5.14,15.08-13.32,0-8.43-4.63-13.44-15.08-13.44H511.46V73.89Z"/><path class="cls-1" d="M576.38,32.09h67.71V47H619.5v77.14H601V47h-24.6Z"/><path class="cls-1" d="M708.36,125.05c-26.05,0-47.34-19.51-47.34-47.2s21.29-47.07,47.34-47.07c26.32,0,47.22,19.51,47.22,47.07S734.55,125.05,708.36,125.05Zm0-16.48c16.67,0,28.17-12,28.17-30.72S725,47.39,708.36,47.39s-28.3,11.73-28.3,30.46S691.57,108.57,708.36,108.57Z"/><path class="cls-1" d="M215,154.13c8.58,0,15.55,4.58,18.15,12.46h-8.91c-1.82-3.69-5.14-5.51-9.29-5.51-6.75,0-11.57,4.91-11.57,12.74s4.82,12.74,11.57,12.74a9.69,9.69,0,0,0,9.29-5.57h8.91c-2.6,7.94-9.57,12.47-18.15,12.47-11.12,0-19.58-8.11-19.58-19.64S203.92,154.13,215,154.13Z"/><path class="cls-1" d="M261.07,193.51c-10.9,0-19.81-8.16-19.81-19.74s8.91-19.7,19.81-19.7,19.75,8.17,19.75,19.7S272,193.51,261.07,193.51Zm0-6.89c7,0,11.79-5,11.79-12.85S268,161,261.07,161s-11.84,4.91-11.84,12.75S254,186.62,261.07,186.62Z"/><path class="cls-1" d="M297.64,154.63V187h12.72v6.13H289.89v-38.5Z"/><path class="cls-1" d="M326.35,154.63V187h12.72v6.13H318.6v-38.5Z"/><path class="cls-1" d="M369.72,160.86H355.06v9.65h13v6.12h-13v10.21h14.66v6.29H347.31V154.57h22.41Z"/><path class="cls-1" d="M397.77,154.13c8.58,0,15.55,4.58,18.15,12.46H407a9.75,9.75,0,0,0-9.29-5.51c-6.75,0-11.57,4.91-11.57,12.74s4.82,12.74,11.57,12.74A9.71,9.71,0,0,0,407,181h8.91c-2.6,7.94-9.57,12.47-18.15,12.47-11.12,0-19.59-8.11-19.59-19.64S386.65,154.13,397.77,154.13Z"/><path class="cls-1" d="M423.82,154.63h28.33v6.23H441.86v32.27h-7.74V160.86h-10.3Z"/><path class="cls-1" d="M479,193.51c-10.9,0-19.81-8.16-19.81-19.74s8.91-19.7,19.81-19.7,19.75,8.17,19.75,19.7S490,193.51,479,193.51Zm0-6.89c7,0,11.78-5,11.78-12.85S486,161,479,161s-11.84,4.91-11.84,12.75S472,186.62,479,186.62Z"/><path class="cls-1" d="M522.35,154.63c9.3,0,13.95,5.35,13.95,11.8,0,4.69-2.6,9.43-8.8,11.09l9.24,15.61h-9l-8.53-15H515.6v15h-7.74v-38.5Zm-.27,6.39H515.6v11.31h6.48c4.31,0,6.25-2.26,6.25-5.74S526.39,161,522.08,161Z"/><path class="cls-1" d="M560,193.51c-8,0-14.22-4.19-14.33-11.47h8.3c.22,3.09,2.27,5.13,5.86,5.13s5.81-1.93,5.81-4.69c0-8.33-19.91-3.31-19.86-17.26,0-6.95,5.65-11.15,13.61-11.15s13.34,4,13.83,11h-8.52c-.16-2.54-2.21-4.52-5.53-4.58-3-.11-5.31,1.38-5.31,4.53,0,7.72,19.81,3.42,19.81,17C573.64,188.05,568.77,193.51,560,193.51Z"/><path class="cls-1" d="M598.09,154.63h28.32v6.23H616.12v32.27h-7.74V160.86H598.09Z"/><path class="cls-1" d="M649.87,154.63c9.29,0,13.94,5.35,13.94,11.8,0,4.69-2.6,9.43-8.8,11.09l9.24,15.61h-9l-8.52-15h-3.65v15h-7.75v-38.5Zm-.28,6.39h-6.47v11.31h6.47c4.32,0,6.25-2.26,6.25-5.74S653.91,161,649.59,161Z"/><path class="cls-1" d="M697.83,185.79H682.45l-2.54,7.34h-8.14l13.89-38.56h9l13.89,38.56h-8.19Zm-7.69-22.28-5.59,16.1h11.18Z"/><path class="cls-1" d="M717.08,154.63h7.75v38.5h-7.75Z"/><path class="cls-1" d="M743.53,154.63V187h12.72v6.13H735.78v-38.5Z"/><path class="cls-2" d="M99.08,164.82H72.27v13.62H99.08a25.5,25.5,0,0,1,25.19,22l.38,2.81H64.41a7.06,7.06,0,0,1-7.06-7.06V56.39H43.56V178.44h.15v25.41a13.09,13.09,0,0,0,13.06,13.06h68.31a13,13,0,0,0,13-12.83A39.08,39.08,0,0,0,99.08,164.82Z"/><path class="cls-2" d="M15.64,48.24a7.22,7.22,0,0,1,7.23-7.11h73.6a29.88,29.88,0,0,0,29.86-29.95A11.26,11.26,0,0,0,115.05,0h-60A11.28,11.28,0,0,0,43.8,11.28V27.5H15.88A13.78,13.78,0,0,0,2.12,41.2L0,164.69a13.76,13.76,0,0,0,13.75,13.75H28.3V164.82H19.39a5.66,5.66,0,0,1-5.66-5.76Zm50.57-34.6h46.71L111.65,17A16.31,16.31,0,0,1,96.47,27.5h-39V22.42A8.78,8.78,0,0,1,66.21,13.64Z"/></g></g></svg>