<svg xmlns="http://www.w3.org/2000/svg" viewBox="0 0 813.47 225.85"><defs><style>.cls-1{fill:#fff;}.cls-2{fill:#f3d038;}</style></defs><g id="Layer_2" data-name="Layer 2"><g id="Layer_1-2" data-name="Layer 1"><path class="cls-1" d="M298.24,32.85c20.5,0,37.16,10.94,43.38,29.8H320.33C316,53.81,308,49.46,298.11,49.46c-16.13,0-27.64,11.74-27.64,30.46s11.51,30.46,27.64,30.46c9.92,0,17.85-4.35,22.22-13.32h21.29c-6.22,19-22.88,29.8-43.38,29.8-26.58,0-46.81-19.38-46.81-46.94S271.66,32.85,298.24,32.85Z"/><path class="cls-1" d="M400.07,34c22.22,0,33.32,12.79,33.32,28.21,0,11.21-6.21,22.55-21,26.51l22.08,37.31H413L392.66,90.21h-8.73v35.86H365.42V34Zm-.66,15.29H383.93v27h15.48c10.31,0,14.94-5.4,14.94-13.71S409.72,49.33,399.41,49.33Z"/><path class="cls-1" d="M450.45,34h20.89L491.18,76.1,510.89,34h20.63L500.31,94v32H481.79V94Z"/><path class="cls-1" d="M584.15,90.73H568.67v35.34H550.16V34h34c22.21,0,33.32,12.52,33.32,28.48C617.47,76.49,608,90.73,584.15,90.73Zm-.8-14.9c10.45,0,15.08-5.14,15.08-13.31,0-8.44-4.63-13.45-15.08-13.45H568.67V75.83Z"/><path class="cls-1" d="M633.6,34h67.71v14.9H676.72v77.13H658.2V48.94H633.6Z"/><path class="cls-1" d="M765.58,127c-26.05,0-47.34-19.51-47.34-47.2s21.29-47.07,47.34-47.07c26.32,0,47.21,19.51,47.21,47.07S791.77,127,765.58,127Zm0-16.48c16.67,0,28.17-12,28.17-30.72s-11.5-30.46-28.17-30.46-28.3,11.74-28.3,30.46S748.79,110.51,765.58,110.51Z"/><path class="cls-1" d="M272.26,159.07c8.58,0,15.55,4.58,18.15,12.47H281.5c-1.82-3.7-5.14-5.52-9.29-5.52-6.75,0-11.57,4.91-11.57,12.74s4.82,12.74,11.57,12.74a9.69,9.69,0,0,0,9.29-5.57h8.91c-2.6,7.95-9.57,12.47-18.15,12.47-11.12,0-19.58-8.11-19.58-19.64S261.14,159.07,272.26,159.07Z"/><path class="cls-1" d="M318.29,198.46c-10.9,0-19.81-8.17-19.81-19.75S307.39,159,318.29,159,338,167.18,338,178.71A19.31,19.31,0,0,1,318.29,198.46Zm0-6.9c7,0,11.78-5,11.78-12.85S325.26,166,318.29,166s-11.84,4.91-11.84,12.74S311.26,191.56,318.29,191.56Z"/><path class="cls-1" d="M354.86,159.57V192h12.72v6.12H347.11v-38.5Z"/><path class="cls-1" d="M383.57,159.57V192h12.72v6.12H375.82v-38.5Z"/><path class="cls-1" d="M426.94,165.8H412.28v9.65h13v6.13h-13v10.2h14.66v6.29H404.53V159.51h22.41Z"/><path class="cls-1" d="M455,159.07c8.57,0,15.55,4.58,18.15,12.47h-8.91a9.75,9.75,0,0,0-9.3-5.52c-6.75,0-11.56,4.91-11.56,12.74s4.81,12.74,11.56,12.74a9.71,9.71,0,0,0,9.3-5.57h8.91c-2.6,7.95-9.58,12.47-18.15,12.47-11.12,0-19.59-8.11-19.59-19.64S443.87,159.07,455,159.07Z"/><path class="cls-1" d="M481,159.57h28.33v6.23H499.08v32.27h-7.75V165.8H481Z"/><path class="cls-1" d="M536.26,198.46c-10.9,0-19.81-8.17-19.81-19.75S525.36,159,536.26,159,556,167.18,556,178.71A19.31,19.31,0,0,1,536.26,198.46Zm0-6.9c7,0,11.78-5,11.78-12.85S543.23,166,536.26,166s-11.85,4.91-11.85,12.74S529.23,191.56,536.26,191.56Z"/><path class="cls-1" d="M579.57,159.57c9.3,0,13.94,5.35,13.94,11.8,0,4.69-2.6,9.43-8.79,11.09L594,198.07h-9l-8.52-15h-3.65v15h-7.74v-38.5Zm-.28,6.4h-6.47v11.3h6.47c4.32,0,6.26-2.26,6.26-5.73S583.61,166,579.29,166Z"/><path class="cls-1" d="M617.19,198.46c-8,0-14.22-4.2-14.33-11.48h8.3c.22,3.09,2.27,5.13,5.86,5.13s5.81-1.93,5.81-4.69c0-8.33-19.92-3.31-19.86-17.26,0-6.95,5.64-11.14,13.61-11.14s13.33,4,13.83,11h-8.52c-.16-2.53-2.21-4.52-5.53-4.58-3-.11-5.31,1.38-5.31,4.53,0,7.72,19.81,3.42,19.81,17C630.86,193,626,198.46,617.19,198.46Z"/><path class="cls-1" d="M655.3,159.57h28.33v6.23H673.34v32.27H665.6V165.8H655.3Z"/><path class="cls-1" d="M707.09,159.57c9.29,0,13.94,5.35,13.94,11.8,0,4.69-2.6,9.43-8.8,11.09l9.24,15.61h-9l-8.52-15h-3.65v15h-7.75v-38.5Zm-.28,6.4h-6.47v11.3h6.47c4.32,0,6.25-2.26,6.25-5.73S711.13,166,706.81,166Z"/><path class="cls-1" d="M755.05,190.73H739.67l-2.54,7.34H729l13.89-38.56h9l13.89,38.56H757.6Zm-7.69-22.28-5.59,16.1H753Z"/><path class="cls-1" d="M774.3,159.57h7.75v38.5H774.3Z"/><path class="cls-1" d="M800.75,159.57V192h12.72v6.12H793v-38.5Z"/><path class="cls-2" d="M97.79,0,0,56.46V169.39l97.79,56.46,97.79-56.46V56.46ZM89.37,198.89,18.92,158.22V65.68l69.9-40.35V57.58L45.38,82.66v60.53l44,25.4Zm89.84-40.67-73,42.15V168.59l42.9-24.77-15.29-10.09-4.36-2.58a36.87,36.87,0,1,1,.64-36.57l3.72-2.46,3.7-2.44L149.1,82,105.67,57V23.22l73.54,42.46Z"/></g></g></svg>